<svg width="25" height="25" viewBox="0 0 25 25" fill="none" xmlns="http://www.w3.org/2000/svg">
<path d="M22.25 6.5H2.75C2.33 6.5 2 6.17 2 5.75C2 5.33 2.33 5 2.75 5H22.25C22.67 5 23 5.33 23 5.75C23 6.17 22.67 6.5 22.25 6.5Z" fill="#74786C"/>
<path d="M17.0298 6.21499L16.3698 4.02499C16.3243 3.8692 16.2296 3.73235 16.0998 3.63499C15.97 3.53762 15.8121 3.48499 15.6498 3.48499H9.34979C9.18751 3.48499 9.02961 3.53762 8.89979 3.63499C8.76996 3.73235 8.67522 3.8692 8.62979 4.02499L7.96979 6.21499L6.52979 5.77999L7.18979 3.58999C7.47479 2.62999 8.34479 1.98499 9.34979 1.98499H15.6498C16.6548 1.98499 17.5098 2.62999 17.8098 3.58999L18.4698 5.77999L17.0298 6.21499Z" fill="#74786C"/>
<path d="M17.7948 23H7.20482C5.98982 23 4.99982 22.04 4.95482 20.825L4.44482 6.01998L5.94482 5.97498L6.45482 20.78C6.45482 21.185 6.79982 21.5 7.20482 21.5H17.8098C18.2148 21.5 18.5448 21.185 18.5598 20.78L19.0698 5.97498L20.5698 6.01998L20.0598 20.825C20.0148 22.04 19.0248 23 17.8098 23H17.7948Z" fill="#74786C"/>
<path d="M10.25 17.9301C9.83 17.9301 9.5 17.6001 9.5 17.1801V11.1801C9.5 10.7601 9.83 10.4301 10.25 10.4301C10.67 10.4301 11 10.7601 11 11.1801V17.1801C11 17.6001 10.67 17.9301 10.25 17.9301ZM14.75 17.9301C14.33 17.9301 14 17.6001 14 17.1801V11.1801C14 10.7601 14.33 10.4301 14.75 10.4301C15.17 10.4301 15.5 10.7601 15.5 11.1801V17.1801C15.5 17.6001 15.17 17.9301 14.75 17.9301Z" fill="#74786C"/>
</svg>
