<svg width="25" height="25" viewBox="0 0 25 25" fill="none" xmlns="http://www.w3.org/2000/svg">
<path d="M9.3 20.699C9.04654 20.9528 8.74554 21.1542 8.41421 21.2916C8.08288 21.4291 7.72771 21.4998 7.369 21.5H3.5V17.656C3.5 16.932 3.788 16.237 4.3 15.725M9.3 20.699L4.3 15.725M9.3 20.699L19.274 10.721M4.3 15.725L14.284 5.72995L15.71 4.30196C15.9638 4.04781 16.2651 3.84618 16.5968 3.70857C16.9286 3.57097 17.2842 3.50009 17.6433 3.5C18.0024 3.49991 18.3581 3.5706 18.6899 3.70803C19.0217 3.84546 19.3231 4.04695 19.577 4.30096L20.703 5.42796C21.2155 5.94049 21.5035 6.63563 21.5035 7.36045C21.5035 8.08528 21.2155 8.78042 20.703 9.29296L19.274 10.721M19.274 10.721L14.283 5.72995" stroke="#74786C" stroke-width="1.5" stroke-linecap="round" stroke-linejoin="round"/>
</svg>
