<svg width="21" height="21" viewBox="0 0 21 21" fill="none" xmlns="http://www.w3.org/2000/svg">
<path d="M7.3 18.699C7.04654 18.9528 6.74554 19.1542 6.41421 19.2916C6.08288 19.4291 5.72771 19.4998 5.369 19.5H1.5V15.656C1.5 14.932 1.788 14.237 2.3 13.725M7.3 18.699L2.3 13.725M7.3 18.699L17.274 8.72095M2.3 13.725L12.284 3.72995L13.71 2.30196C13.9638 2.04781 14.2651 1.84618 14.5968 1.70857C14.9286 1.57097 15.2842 1.50009 15.6433 1.5C16.0024 1.49991 16.3581 1.5706 16.6899 1.70803C17.0217 1.84546 17.3231 2.04695 17.577 2.30096L18.703 3.42796C19.2155 3.94049 19.5035 4.63563 19.5035 5.36045C19.5035 6.08528 19.2155 6.78042 18.703 7.29296L17.274 8.72095M17.274 8.72095L12.283 3.72995" stroke="#74786C" stroke-width="1.5" stroke-linecap="round" stroke-linejoin="round"/>
</svg>
