<svg width="24" height="24" viewBox="0 0 24 24" fill="none" xmlns="http://www.w3.org/2000/svg">
<path d="M8.14281 4.28577C7.63628 4.28577 7.13471 4.38553 6.66674 4.57937C6.19877 4.77321 5.77356 5.05733 5.41539 5.4155C5.05722 5.77367 4.77311 6.19887 4.57927 6.66685C4.38543 7.13482 4.28566 7.63638 4.28566 8.14291C4.28566 8.64944 4.38543 9.151 4.57927 9.61897C4.77311 10.0869 5.05722 10.5122 5.41539 10.8703C5.77356 11.2285 6.19877 11.5126 6.66674 11.7064C7.13471 11.9003 7.63628 12.0001 8.14281 12.0001C9.16578 12.0001 10.1469 11.5937 10.8702 10.8703C11.5936 10.147 11.9999 9.16589 11.9999 8.14291C11.9999 7.11993 11.5936 6.13885 10.8702 5.4155C10.1469 4.69214 9.16578 4.28577 8.14281 4.28577ZM5.57138 8.14291C5.57138 7.80522 5.63789 7.47085 5.76711 7.15887C5.89634 6.84689 6.08575 6.56341 6.32453 6.32464C6.56331 6.08586 6.84678 5.89645 7.15876 5.76722C7.47074 5.63799 7.80512 5.57148 8.14281 5.57148C8.48049 5.57148 8.81487 5.63799 9.12685 5.76722C9.43883 5.89645 9.7223 6.08586 9.96108 6.32464C10.1999 6.56341 10.3893 6.84689 10.5185 7.15887C10.6477 7.47085 10.7142 7.80522 10.7142 8.14291C10.7142 8.82489 10.4433 9.47895 9.96108 9.96118C9.47884 10.4434 8.82479 10.7143 8.14281 10.7143C7.46082 10.7143 6.80677 10.4434 6.32453 9.96118C5.84229 9.47895 5.57138 8.82489 5.57138 8.14291ZM17.1428 6.00005C16.3472 6.00005 15.5841 6.31612 15.0215 6.87873C14.4589 7.44134 14.1428 8.2044 14.1428 9.00005C14.1428 9.7957 14.4589 10.5588 15.0215 11.1214C15.5841 11.684 16.3472 12.0001 17.1428 12.0001C17.9385 12.0001 18.7015 11.684 19.2641 11.1214C19.8267 10.5588 20.1428 9.7957 20.1428 9.00005C20.1428 8.2044 19.8267 7.44134 19.2641 6.87873C18.7015 6.31612 17.9385 6.00005 17.1428 6.00005ZM15.4285 9.00005C15.4285 8.5454 15.6091 8.10936 15.9306 7.78787C16.2521 7.46638 16.6881 7.28577 17.1428 7.28577C17.5975 7.28577 18.0335 7.46638 18.355 7.78787C18.6765 8.10936 18.8571 8.5454 18.8571 9.00005C18.8571 9.45471 18.6765 9.89074 18.355 10.2122C18.0335 10.5337 17.5975 10.7143 17.1428 10.7143C16.6881 10.7143 16.2521 10.5337 15.9306 10.2122C15.6091 9.89074 15.4285 9.45471 15.4285 9.00005ZM1.71423 15.6429C1.71423 15.1314 1.91742 14.6409 2.2791 14.2792C2.64078 13.9175 3.13132 13.7143 3.6428 13.7143H12.6428C13.1543 13.7143 13.6448 13.9175 14.0065 14.2792C14.3682 14.6409 14.5714 15.1314 14.5714 15.6429V16.0981C14.5707 16.1674 14.5659 16.2367 14.5568 16.3055C14.5375 16.4823 14.506 16.6576 14.4625 16.8301C14.3205 17.3928 14.0679 17.9217 13.7194 18.3858C12.8502 19.5455 11.1925 20.5715 8.14281 20.5715C5.09309 20.5715 3.43538 19.5455 2.56623 18.3858C2.218 17.9216 1.96567 17.3928 1.82395 16.8301C1.76785 16.606 1.73199 16.3774 1.7168 16.1469L1.71423 16.0981V15.6429ZM2.99995 16.0672V16.0826L3.00766 16.1683C3.01623 16.2489 3.03338 16.3698 3.07109 16.5181C3.17103 16.9145 3.34875 17.2872 3.59395 17.6143C4.17166 18.3832 5.40681 19.2858 8.14281 19.2858C10.8788 19.2858 12.1139 18.3832 12.6908 17.6143C12.9908 17.2149 13.1399 16.8155 13.2137 16.5181C13.2498 16.3752 13.2736 16.2295 13.2848 16.0826L13.2857 16.0672V15.6429C13.2857 15.4724 13.2179 15.3089 13.0974 15.1883C12.9768 15.0678 12.8133 15.0001 12.6428 15.0001H3.6428C3.47231 15.0001 3.3088 15.0678 3.18824 15.1883C3.06768 15.3089 2.99995 15.4724 2.99995 15.6429V16.0672ZM14.6571 18.5315C15.3197 18.7346 16.1374 18.8572 17.1411 18.8572C19.5154 18.8572 20.8422 18.1749 21.5631 17.3521C21.8509 17.0261 22.0644 16.6415 22.1888 16.2249C22.2374 16.0565 22.2688 15.8836 22.2822 15.7089L22.2839 15.6686V15.6429C22.2839 15.1314 22.0808 14.6409 21.7191 14.2792C21.3574 13.9175 20.8669 13.7143 20.3554 13.7143H14.6519C14.9897 14.0666 15.2365 14.5081 15.3531 15.0001H20.3562C20.5253 15 20.6875 15.0666 20.8078 15.1853C20.9281 15.304 20.9968 15.4653 20.9991 15.6343L20.9948 15.6738C20.9862 15.7384 20.9728 15.8023 20.9545 15.8649C20.8822 16.1018 20.7594 16.3203 20.5945 16.5052C20.1908 16.9681 19.2685 17.5715 17.1411 17.5715C16.3345 17.5715 15.7011 17.4849 15.2031 17.3512C15.0718 17.7661 14.8883 18.1627 14.6571 18.5315Z" fill="#74786C"/>
</svg>
