<svg width="22" height="17" viewBox="0 0 22 17" fill="none" xmlns="http://www.w3.org/2000/svg">
<path d="M7.14293 0.285767C6.6364 0.285767 6.13483 0.385535 5.66686 0.579374C5.19889 0.773214 4.77368 1.05733 4.41551 1.4155C4.05735 1.77367 3.77323 2.19887 3.57939 2.66685C3.38555 3.13482 3.28578 3.63638 3.28578 4.14291C3.28578 4.64944 3.38555 5.151 3.57939 5.61897C3.77323 6.08694 4.05735 6.51215 4.41551 6.87032C4.77368 7.22849 5.19889 7.51261 5.66686 7.70645C6.13483 7.90029 6.6364 8.00005 7.14293 8.00005C8.1659 8.00005 9.14698 7.59368 9.87034 6.87032C10.5937 6.14697 11.0001 5.16589 11.0001 4.14291C11.0001 3.11993 10.5937 2.13885 9.87034 1.4155C9.14698 0.692143 8.1659 0.285767 7.14293 0.285767ZM4.5715 4.14291C4.5715 3.80522 4.63801 3.47085 4.76724 3.15887C4.89646 2.84689 5.08587 2.56341 5.32465 2.32464C5.56343 2.08586 5.8469 1.89645 6.15888 1.76722C6.47086 1.63799 6.80524 1.57148 7.14293 1.57148C7.48061 1.57148 7.81499 1.63799 8.12697 1.76722C8.43895 1.89645 8.72242 2.08586 8.9612 2.32464C9.19998 2.56341 9.38939 2.84689 9.51862 3.15887C9.64784 3.47085 9.71436 3.80522 9.71436 4.14291C9.71436 4.82489 9.44344 5.47895 8.9612 5.96118C8.47897 6.44342 7.82491 6.71434 7.14293 6.71434C6.46094 6.71434 5.80689 6.44342 5.32465 5.96118C4.84242 5.47895 4.5715 4.82489 4.5715 4.14291ZM16.1429 2.00005C15.3473 2.00005 14.5842 2.31612 14.0216 2.87873C13.459 3.44134 13.1429 4.2044 13.1429 5.00005C13.1429 5.7957 13.459 6.55876 14.0216 7.12137C14.5842 7.68398 15.3473 8.00005 16.1429 8.00005C16.9386 8.00005 17.7016 7.68398 18.2642 7.12137C18.8269 6.55876 19.1429 5.7957 19.1429 5.00005C19.1429 4.2044 18.8269 3.44134 18.2642 2.87873C17.7016 2.31612 16.9386 2.00005 16.1429 2.00005ZM14.4286 5.00005C14.4286 4.5454 14.6093 4.10936 14.9307 3.78787C15.2522 3.46638 15.6883 3.28577 16.1429 3.28577C16.5976 3.28577 17.0336 3.46638 17.3551 3.78787C17.6766 4.10936 17.8572 4.5454 17.8572 5.00005C17.8572 5.45471 17.6766 5.89074 17.3551 6.21224C17.0336 6.53373 16.5976 6.71434 16.1429 6.71434C15.6883 6.71434 15.2522 6.53373 14.9307 6.21224C14.6093 5.89074 14.4286 5.45471 14.4286 5.00005ZM0.714355 11.6429C0.714355 11.1314 0.917544 10.6409 1.27922 10.2792C1.6409 9.91753 2.13144 9.71434 2.64293 9.71434H11.6429C12.1544 9.71434 12.645 9.91753 13.0066 10.2792C13.3683 10.6409 13.5715 11.1314 13.5715 11.6429V12.0981C13.5708 12.1674 13.566 12.2367 13.5569 12.3055C13.5376 12.4823 13.5061 12.6576 13.4626 12.8301C13.3207 13.3928 13.068 13.9217 12.7195 14.3858C11.8504 15.5455 10.1926 16.5715 7.14293 16.5715C4.09321 16.5715 2.4355 15.5455 1.56636 14.3858C1.21813 13.9216 0.965792 13.3928 0.82407 12.8301C0.767974 12.606 0.732116 12.3774 0.716927 12.1469L0.714355 12.0981V11.6429ZM2.00007 12.0672V12.0826L2.00778 12.1683C2.01636 12.2489 2.0335 12.3698 2.07121 12.5181C2.17115 12.9145 2.34888 13.2872 2.59407 13.6143C3.17178 14.3832 4.40693 15.2858 7.14293 15.2858C9.87893 15.2858 11.1141 14.3832 11.6909 13.6143C11.9909 13.2149 12.1401 12.8155 12.2138 12.5181C12.2499 12.3752 12.2737 12.2295 12.2849 12.0826L12.2858 12.0672V11.6429C12.2858 11.4724 12.2181 11.3089 12.0975 11.1883C11.9769 11.0678 11.8134 11.0001 11.6429 11.0001H2.64293C2.47243 11.0001 2.30892 11.0678 2.18836 11.1883C2.0678 11.3089 2.00007 11.4724 2.00007 11.6429V12.0672ZM13.6572 14.5315C14.3198 14.7346 15.1375 14.8572 16.1412 14.8572C18.5155 14.8572 19.8424 14.1749 20.5632 13.3521C20.851 13.0261 21.0645 12.6415 21.1889 12.2249C21.2376 12.0565 21.2689 11.8836 21.2824 11.7089L21.2841 11.6686V11.6429C21.2841 11.1314 21.0809 10.6409 20.7192 10.2792C20.3575 9.91753 19.867 9.71434 19.3555 9.71434H13.6521C13.9898 10.0666 14.2366 10.5081 14.3532 11.0001H19.3564C19.5254 11 19.6876 11.0666 19.8079 11.1853C19.9282 11.304 19.997 11.4653 19.9992 11.6343L19.9949 11.6738C19.9864 11.7384 19.9729 11.8023 19.9546 11.8649C19.8823 12.1018 19.7595 12.3203 19.5946 12.5052C19.1909 12.9681 18.2686 13.5715 16.1412 13.5715C15.3346 13.5715 14.7012 13.4849 14.2032 13.3512C14.0719 13.7661 13.8884 14.1627 13.6572 14.5315Z" fill="#74786C"/>
</svg>
